<svg xmlns="http://www.w3.org/2000/svg" width="1023" height="1025" viewBox="0 0 1023 1025">
<g>
<path d="M 83.00 1024.32 C68.45,1021.89 61.57,1019.76 51.25,1014.49 C39.16,1008.32 31.05,1001.92 21.25,990.79 C13.30,981.76 4.62,964.72 1.95,952.87 C0.10,944.73 0.05,932.80 0.05,512.50 C0.05,92.20 0.10,80.27 1.95,72.13 C6.01,54.15 17.76,35.55 33.83,21.65 C42.77,13.91 59.84,5.41 71.92,2.67 L 81.50 0.50 L 940.50 0.50 L 950.24 2.70 C961.09,5.16 974.50,11.32 984.34,18.37 C995.63,26.44 1007.11,40.11 1012.86,52.32 C1017.88,62.97 1018.97,66.24 1020.92,76.32 L 1023.00 87.10 L 1023.00 937.90 L 1020.92 948.68 C1018.97,958.76 1017.88,962.03 1012.86,972.68 C1001.75,996.25 977.02,1016.01 950.75,1022.29 L 941.50 1024.50 L 710.00 1024.56 L 710.00 630.04 L 774.45 629.77 C821.73,629.57 839.21,629.19 840.06,628.34 C841.65,626.75 844.62,611.43 845.45,600.50 C845.83,595.55 846.73,588.58 847.46,585.00 C848.18,581.42 849.08,574.45 849.46,569.50 C849.83,564.55 850.74,557.58 851.47,554.00 C852.20,550.42 853.10,543.45 853.48,538.50 C853.86,533.55 854.79,526.25 855.53,522.29 C856.28,518.32 857.19,511.12 857.56,506.29 C857.93,501.45 858.85,494.43 859.61,490.68 C861.49,481.44 861.40,475.10 859.35,472.83 C857.77,471.09 854.11,471.00 783.81,471.00 L 709.93 471.00 L 710.21 409.75 C710.48,352.76 710.63,348.12 712.39,343.00 C716.54,330.90 719.53,325.54 725.50,319.46 C730.94,313.91 733.62,312.23 745.50,306.89 C746.60,306.40 751.33,305.24 756.00,304.31 C762.99,302.93 773.36,302.53 814.33,302.06 C862.40,301.52 864.21,301.43 865.60,299.53 C866.83,297.86 867.00,287.48 866.77,229.82 C866.52,167.47 866.36,161.93 864.79,160.36 C863.48,159.05 860.34,158.48 851.29,157.89 C844.81,157.46 835.00,156.54 829.50,155.82 C822.43,154.91 803.84,154.53 766.00,154.52 C719.39,154.50 711.60,154.72 705.50,156.17 C701.65,157.09 695.80,158.33 692.50,158.92 C674.30,162.17 648.68,171.95 633.50,181.44 C619.70,190.08 611.74,196.16 602.18,205.42 C590.88,216.34 576.47,235.24 571.23,246.00 C570.56,247.38 569.58,249.18 569.05,250.00 C568.51,250.82 566.91,254.20 565.48,257.50 C564.05,260.80 562.41,264.35 561.84,265.40 C559.05,270.50 553.81,288.07 551.00,301.77 C549.95,306.87 548.85,311.43 548.55,311.92 C548.25,312.41 547.33,321.06 546.51,331.15 C545.41,344.68 545.01,365.05 545.01,408.67 C545.00,441.21 544.73,468.55 544.39,469.42 C543.85,470.84 537.20,471.00 479.55,471.00 C415.52,471.00 415.30,471.01 413.40,473.10 C411.57,475.13 411.49,478.07 411.23,550.39 C411.00,614.48 411.18,625.86 412.40,627.53 C413.80,629.45 415.53,629.51 478.62,629.77 C528.51,629.98 543.59,630.33 544.19,631.27 C544.62,631.95 544.98,720.81 544.98,828.75 L 545.00 1024.61 L 513.50 1024.62 C278.10,1024.68 84.38,1024.55 83.00,1024.32 Z" fill="rgba(59,89,152,1)"/>
<path d="M 544.98 828.75 C544.98,720.81 544.62,631.95 544.19,631.27 C543.59,630.33 528.51,629.98 478.62,629.77 C415.53,629.51 413.80,629.45 412.40,627.53 C411.18,625.86 411.00,614.48 411.23,550.39 C411.49,478.07 411.57,475.13 413.40,473.10 C415.30,471.01 415.52,471.00 479.55,471.00 C537.20,471.00 543.85,470.84 544.39,469.42 C544.73,468.55 545.00,441.21 545.01,408.67 C545.01,365.05 545.41,344.68 546.51,331.15 C547.33,321.06 548.25,312.41 548.55,311.92 C548.85,311.43 549.95,306.87 551.00,301.77 C553.81,288.07 559.05,270.50 561.84,265.40 C562.41,264.35 564.05,260.80 565.48,257.50 C566.91,254.20 568.51,250.82 569.05,250.00 C569.58,249.18 570.56,247.38 571.23,246.00 C576.47,235.24 590.88,216.34 602.18,205.42 C611.74,196.16 619.70,190.08 633.50,181.44 C648.68,171.95 674.30,162.17 692.50,158.92 C695.80,158.33 701.65,157.09 705.50,156.17 C711.60,154.72 719.39,154.50 766.00,154.52 C803.84,154.53 822.43,154.91 829.50,155.82 C835.00,156.54 844.81,157.46 851.29,157.89 C860.34,158.48 863.48,159.05 864.79,160.36 C866.36,161.93 866.52,167.47 866.77,229.82 C867.00,287.48 866.83,297.86 865.60,299.53 C864.21,301.43 862.40,301.52 814.33,302.06 C773.36,302.53 762.99,302.93 756.00,304.31 C751.33,305.24 746.60,306.40 745.50,306.89 C733.62,312.23 730.94,313.91 725.50,319.46 C719.53,325.54 716.54,330.90 712.39,343.00 C710.63,348.12 710.48,352.76 710.21,409.75 L 709.93 471.00 L 783.81 471.00 C854.11,471.00 857.77,471.09 859.35,472.83 C861.40,475.10 861.49,481.44 859.61,490.68 C858.85,494.43 857.93,501.45 857.56,506.29 C857.19,511.12 856.28,518.32 855.53,522.29 C854.79,526.25 853.86,533.55 853.48,538.50 C853.10,543.45 852.20,550.42 851.47,554.00 C850.74,557.58 849.83,564.55 849.46,569.50 C849.08,574.45 848.18,581.42 847.46,585.00 C846.73,588.58 845.83,595.55 845.45,600.50 C844.62,611.43 841.65,626.75 840.06,628.34 C839.21,629.19 821.73,629.57 774.45,629.77 L 710.00 630.04 L 710.00 1025.00 L 706.00 1025.00 L 706.00 828.00 C706.00,632.33 706.01,630.99 708.00,629.00 C709.96,627.04 711.33,627.00 773.96,627.00 C827.78,627.00 838.09,627.48 839.84,623.84 C840.45,622.57 840.01,620.79 840.01,618.32 C840.02,615.67 840.68,610.73 841.48,607.34 C842.28,603.96 843.38,595.86 843.93,589.34 C844.47,582.83 845.38,575.97 845.94,574.09 C846.50,572.21 847.22,566.59 847.54,561.59 C847.86,556.59 848.81,549.20 849.65,545.17 C850.49,541.14 851.54,533.26 851.98,527.67 C852.43,522.08 853.49,513.00 854.35,507.50 C857.41,487.73 858.27,476.78 856.82,475.87 C856.09,475.41 822.88,475.02 783.00,475.00 C743.12,474.98 710.00,474.64 709.40,474.23 C706.19,472.09 706.00,468.99 706.00,419.71 C706.00,352.23 707.55,339.56 717.66,324.33 C719.61,321.39 723.30,317.17 725.86,314.97 C731.33,310.26 742.60,304.48 749.12,303.06 C751.66,302.50 755.03,301.50 756.62,300.82 C758.72,299.92 773.63,299.44 811.50,299.04 L 863.50 298.50 L 863.76 231.33 C863.98,172.89 863.82,163.96 862.52,162.67 C860.89,161.03 857.57,160.69 826.50,158.95 C815.50,158.34 800.42,157.45 793.00,156.98 C766.99,155.32 732.98,155.78 716.00,158.01 C694.25,160.86 675.09,165.34 664.22,170.12 C661.87,171.15 659.50,172.00 658.95,172.00 C657.73,172.00 639.64,180.83 635.50,183.45 C620.20,193.13 614.06,197.82 604.17,207.38 C594.10,217.11 583.37,230.61 576.25,242.50 C574.63,245.20 565.66,263.63 563.83,268.00 C560.14,276.85 553.55,300.70 552.09,310.50 C551.51,314.35 550.54,319.52 549.92,322.00 C549.17,325.02 548.64,350.36 548.30,399.21 C547.86,463.38 547.62,472.07 546.25,473.21 C545.03,474.22 530.74,474.61 479.60,475.00 L 414.50 475.50 L 414.50 626.50 L 480.00 627.00 C516.03,627.28 546.06,627.86 546.75,628.31 C547.74,628.95 548.00,669.80 548.00,827.06 L 548.00 1025.00 L 545.00 1025.00 Z" fill="rgba(132,151,190,1)"/>
<path d="M 548.00 827.06 C548.00,669.80 547.74,628.95 546.75,628.31 C546.06,627.86 516.03,627.28 480.00,627.00 L 414.50 626.50 L 414.50 551.00 L 414.50 475.50 L 479.60 475.00 C530.74,474.61 545.03,474.22 546.25,473.21 C547.62,472.07 547.86,463.38 548.30,399.21 C548.64,350.36 549.17,325.02 549.92,322.00 C550.54,319.52 551.51,314.35 552.09,310.50 C553.55,300.70 560.14,276.85 563.83,268.00 C565.66,263.63 574.63,245.20 576.25,242.50 C583.37,230.61 594.10,217.11 604.17,207.38 C614.06,197.82 620.20,193.13 635.50,183.45 C639.64,180.83 657.73,172.00 658.95,172.00 C659.50,172.00 661.87,171.15 664.22,170.12 C675.09,165.34 694.25,160.86 716.00,158.01 C732.98,155.78 766.99,155.32 793.00,156.98 C800.42,157.45 815.50,158.34 826.50,158.95 C857.57,160.69 860.89,161.03 862.52,162.67 C863.82,163.96 863.98,172.89 863.76,231.33 L 863.50 298.50 L 811.50 299.04 C773.63,299.44 758.72,299.92 756.62,300.82 C755.03,301.50 751.66,302.50 749.12,303.06 C742.60,304.48 731.33,310.26 725.86,314.97 C723.30,317.17 719.61,321.39 717.66,324.33 C707.55,339.56 706.00,352.23 706.00,419.71 C706.00,468.99 706.19,472.09 709.40,474.23 C710.00,474.64 743.12,474.98 783.00,475.00 C822.88,475.02 856.09,475.41 856.82,475.87 C858.27,476.78 857.41,487.73 854.35,507.50 C853.49,513.00 852.43,522.08 851.98,527.67 C851.54,533.26 850.49,541.14 849.65,545.17 C848.81,549.20 847.86,556.59 847.54,561.59 C847.22,566.59 846.50,572.21 845.94,574.09 C845.38,575.97 844.47,582.83 843.93,589.34 C843.38,595.86 842.28,603.96 841.48,607.34 C840.68,610.73 840.02,615.67 840.01,618.32 C839.99,627.87 846.62,627.00 773.96,627.00 C711.33,627.00 709.96,627.04 708.00,629.00 C706.01,630.99 706.00,632.33 706.00,828.00 L 706.00 1025.00 L 627.00 1025.00 L 548.00 1025.00 L 548.00 827.06 Z" fill="rgba(253,253,254,1)"/>
</g>
</svg>