<svg xmlns="http://www.w3.org/2000/svg" width="1024" height="1024" viewBox="0 0 1024 1024">
<g>
<path d="M 88.96 1022.91 C46.49,1017.38 11.68,984.86 2.89,942.50 C1.09,933.80 1.03,919.64 1.03,512.00 C1.03,104.36 1.09,90.20 2.89,81.50 C10.84,43.19 38.76,13.91 77.50,3.25 L 87.50 0.50 L 936.50 0.50 L 946.50 3.25 C965.97,8.61 982.77,18.60 995.83,32.57 C1007.93,45.53 1015.54,59.43 1020.31,77.31 L 1022.50 85.50 L 1022.50 938.50 L 1020.31 946.69 C1015.54,964.57 1007.93,978.47 995.83,991.43 C982.77,1005.40 965.97,1015.39 946.50,1020.75 L 936.50 1023.50 L 516.00 1023.63 C284.73,1023.70 92.55,1023.37 88.96,1022.91 ZM 522.50 706.90 C543.03,709.04 568.86,707.68 589.27,703.39 C616.56,697.66 635.45,688.47 656.80,670.56 C661.91,666.27 666.20,662.93 666.34,663.13 C666.47,663.33 667.37,667.55 668.34,672.50 C669.54,678.64 671.60,684.52 674.80,691.00 L 679.50 700.50 L 735.50 700.76 C766.30,700.90 792.02,700.82 792.65,700.58 C793.40,700.29 792.10,696.19 788.91,688.79 C778.98,665.71 779.70,674.28 778.97,569.50 C778.36,481.70 778.24,477.09 776.28,468.50 C768.68,435.05 756.02,414.44 734.41,400.35 C710.27,384.62 683.25,379.25 619.00,377.39 C573.63,376.09 528.72,381.42 504.44,391.00 C470.58,404.37 450.17,426.96 440.46,461.82 C438.82,467.69 438.81,468.38 440.32,471.54 C441.27,473.54 442.89,475.15 444.22,475.44 C445.47,475.71 462.92,477.56 483.00,479.54 C503.08,481.53 527.12,484.01 536.43,485.07 C545.73,486.12 553.44,486.87 553.55,486.74 C553.66,486.61 555.31,483.12 557.22,479.00 C564.19,463.91 571.87,457.26 587.43,452.82 C594.63,450.77 597.66,450.52 615.50,450.51 C634.17,450.50 635.89,450.66 641.31,452.85 C652.40,457.32 657.85,466.28 658.75,481.51 L 659.23 489.52 L 649.11 493.26 C624.89,502.22 602.96,507.75 545.32,519.42 C515.13,525.53 505.07,527.93 494.00,531.68 C471.28,539.37 455.56,549.03 445.89,561.26 L 442.12 566.03 L 445.04 572.26 C449.92,582.71 452.09,593.03 452.12,606.00 C452.17,622.54 449.12,634.92 441.07,650.86 L 437.87 657.19 L 441.19 662.73 C445.41,669.78 457.74,682.43 465.50,687.67 C480.60,697.88 500.60,704.62 522.50,706.90 ZM 256.50 706.88 C272.63,708.11 304.99,708.15 319.70,706.96 C363.34,703.44 396.87,690.84 417.92,670.07 C428.82,659.32 435.12,648.98 441.11,632.00 C444.35,622.81 444.46,622.00 444.48,607.00 C444.50,592.15 444.37,591.14 441.38,582.78 C436.59,569.40 430.61,559.75 421.42,550.57 C400.89,530.07 373.61,520.87 308.50,512.51 C275.90,508.32 261.44,505.33 253.15,501.06 C232.31,490.32 237.52,463.60 261.88,456.30 C269.91,453.89 292.26,453.95 300.50,456.39 C314.08,460.43 323.21,467.51 328.56,478.16 C330.03,481.10 331.36,483.63 331.50,483.80 C332.04,484.41 431.53,474.67 432.37,473.93 C433.51,472.92 426.55,458.60 420.23,448.94 C409.75,432.91 397.80,422.59 379.86,414.06 C368.19,408.51 358.96,405.93 341.50,403.32 C323.80,400.68 255.75,400.68 239.00,403.31 C204.02,408.81 180.83,419.48 163.80,437.91 C155.98,446.37 150.75,455.11 147.27,465.50 C144.82,472.85 144.60,474.85 144.55,490.00 C144.50,506.02 144.59,506.75 147.63,515.26 C152.26,528.18 156.31,534.31 168.05,546.14 C177.86,556.03 179.42,557.17 190.05,562.34 C205.70,569.95 232.09,576.78 273.50,583.96 C296.48,587.94 321.82,593.56 328.30,596.12 C339.46,600.52 346.00,609.34 346.00,620.00 C346.00,633.39 334.83,644.72 316.87,649.57 C308.22,651.90 291.80,652.40 282.03,650.62 C264.49,647.44 250.56,636.92 243.04,621.18 L 239.58 613.94 L 235.54 614.49 C232.13,614.95 201.35,617.87 144.50,623.11 C137.90,623.72 132.32,624.38 132.11,624.58 C131.53,625.12 136.87,639.77 139.73,645.50 C146.67,659.36 158.68,673.39 171.34,682.43 C189.72,695.54 219.34,704.04 256.50,706.88 ZM 862.14 353.25 C864.99,358.06 867.52,362.00 867.76,362.00 C868.00,362.00 878.39,356.44 890.85,349.64 C903.31,342.84 917.33,335.21 922.00,332.69 C929.45,328.67 932.67,327.25 933.18,325.18 C933.61,323.41 932.07,321.15 929.48,316.40 C917.80,294.91 903.84,275.92 887.06,258.64 C866.48,237.46 843.34,220.58 817.50,207.90 C782.97,190.95 740.80,181.00 703.54,181.00 L 693.29 181.00 L 692.76 220.25 C692.47,241.84 692.29,259.57 692.36,259.65 C692.44,259.74 698.70,260.29 706.28,260.88 C757.40,264.88 803.92,286.24 837.51,321.14 C848.00,332.03 854.91,341.04 862.14,353.25 ZM 780.49 406.44 C783.59,410.78 785.75,412.93 786.67,412.57 C787.45,412.27 793.35,408.79 799.79,404.83 C806.23,400.86 818.47,393.40 827.00,388.24 C835.53,383.08 842.92,378.44 843.44,377.94 C846.14,375.30 821.42,346.02 805.50,333.01 C775.88,308.79 731.69,290.70 697.50,288.78 L 692.50 288.50 L 692.24 322.73 L 691.97 356.96 L 694.24 357.38 C695.48,357.61 700.09,358.34 704.48,359.01 C733.36,363.35 762.91,381.79 780.49,406.44 ZM 607.93 637.96 C598.96,640.12 582.86,640.59 575.73,638.91 C551.53,633.21 542.17,606.01 558.34,588.32 C566.76,579.11 576.35,575.13 619.36,563.01 C639.05,557.46 652.16,553.46 657.36,551.43 C659.14,550.73 659.20,551.50 658.74,570.10 C658.21,591.48 657.25,596.12 650.96,607.93 C644.09,620.81 625.58,633.73 607.93,637.96 Z" fill="rgba(78,101,122,1)"/>
<path d="M 862.14 353.25 C854.91,341.04 848.00,332.03 837.51,321.14 C803.92,286.24 757.40,264.88 706.28,260.88 C698.70,260.29 692.44,259.74 692.36,259.65 C692.29,259.57 692.47,241.84 692.76,220.25 L 693.29 181.00 L 703.54 181.00 C740.80,181.00 782.97,190.95 817.50,207.90 C843.34,220.58 866.48,237.46 887.06,258.64 C903.84,275.92 917.80,294.91 929.48,316.40 C932.07,321.15 933.61,323.41 933.18,325.18 C932.67,327.25 929.45,328.67 922.00,332.69 C917.33,335.21 903.31,342.84 890.85,349.64 C878.39,356.44 868.00,362.00 867.76,362.00 C867.52,362.00 864.99,358.06 862.14,353.25 ZM 780.49 406.44 C762.91,381.79 733.36,363.35 704.48,359.01 C700.09,358.34 695.48,357.61 694.24,357.38 L 691.97 356.96 L 692.24 322.73 L 692.50 288.50 L 697.50 288.78 C731.69,290.70 775.88,308.79 805.50,333.01 C821.42,346.02 846.14,375.30 843.44,377.94 C842.92,378.44 835.53,383.08 827.00,388.24 C818.47,393.40 806.23,400.86 799.79,404.83 C793.35,408.79 787.45,412.27 786.67,412.57 C785.75,412.93 783.59,410.78 780.49,406.44 ZM 780.00 403.82 C783.08,407.97 785.20,409.90 786.72,409.94 C787.95,409.97 794.59,406.51 801.49,402.25 C808.39,397.99 816.84,392.89 820.27,390.93 C823.70,388.97 829.38,385.48 832.91,383.18 C836.43,380.88 839.69,379.00 840.16,379.00 C840.62,379.00 841.00,377.80 841.00,376.34 C841.00,370.41 820.42,346.67 803.68,333.29 C791.99,323.94 768.00,308.60 768.00,310.48 C768.00,310.84 767.29,310.44 766.43,309.57 C765.56,308.71 763.76,308.00 762.43,308.00 C761.09,308.00 760.00,307.62 760.00,307.15 C760.00,305.71 742.32,298.69 734.50,297.03 C732.30,296.56 727.35,295.43 723.50,294.51 C705.46,290.21 697.41,289.16 698.59,291.25 C699.14,292.22 699.01,292.23 698.01,291.31 C697.02,290.40 696.42,290.44 695.35,291.51 C694.23,292.63 694.02,298.74 694.24,324.69 L 694.50 356.50 L 701.50 357.16 C708.31,357.80 716.66,359.70 722.25,361.88 C723.76,362.47 725.00,362.70 725.00,362.40 C725.00,362.10 725.71,362.56 726.57,363.43 C727.98,364.83 730.09,365.46 732.25,365.12 C732.66,365.05 733.00,365.43 733.00,365.95 C733.00,366.48 734.49,367.32 736.32,367.82 C746.05,370.51 769.79,390.08 780.00,403.82 Z" fill="rgba(189,202,213,1)"/>
<path d="M 256.50 706.88 C219.34,704.04 189.72,695.54 171.34,682.43 C158.68,673.39 146.67,659.36 139.73,645.50 C136.87,639.77 131.53,625.12 132.11,624.58 C132.32,624.38 137.90,623.72 144.50,623.11 C201.35,617.87 232.13,614.95 235.54,614.49 L 239.58 613.94 L 243.04 621.18 C250.56,636.92 264.49,647.44 282.03,650.62 C291.80,652.40 308.22,651.90 316.87,649.57 C334.83,644.72 346.00,633.39 346.00,620.00 C346.00,609.34 339.46,600.52 328.30,596.12 C321.82,593.56 296.48,587.94 273.50,583.96 C232.09,576.78 205.70,569.95 190.05,562.34 C179.42,557.17 177.86,556.03 168.05,546.14 C156.31,534.31 152.26,528.18 147.63,515.26 C144.59,506.75 144.50,506.02 144.55,490.00 C144.60,474.85 144.82,472.85 147.27,465.50 C150.75,455.11 155.98,446.37 163.80,437.91 C180.83,419.48 204.02,408.81 239.00,403.31 C255.75,400.68 323.80,400.68 341.50,403.32 C358.96,405.93 368.19,408.51 379.86,414.06 C397.80,422.59 409.75,432.91 420.23,448.94 C426.55,458.60 433.51,472.92 432.37,473.93 C431.53,474.67 332.04,484.41 331.50,483.80 C331.36,483.63 330.03,481.10 328.56,478.16 C323.21,467.51 314.08,460.43 300.50,456.39 C292.26,453.95 269.91,453.89 261.88,456.30 C237.52,463.60 232.31,490.32 253.15,501.06 C261.44,505.33 275.90,508.32 308.50,512.51 C373.61,520.87 400.89,530.07 421.42,550.57 C430.61,559.75 436.59,569.40 441.38,582.78 C444.37,591.14 444.50,592.15 444.48,607.00 C444.46,622.00 444.35,622.81 441.11,632.00 C435.12,648.98 428.82,659.32 417.92,670.07 C396.87,690.84 363.34,703.44 319.70,706.96 C304.99,708.15 272.63,708.11 256.50,706.88 ZM 522.50 706.90 C500.60,704.62 480.60,697.88 465.50,687.67 C457.74,682.43 445.41,669.78 441.19,662.73 L 437.87 657.19 L 441.07 650.86 C449.12,634.92 452.17,622.54 452.12,606.00 C452.09,593.03 449.92,582.71 445.04,572.26 L 442.12 566.03 L 445.89 561.26 C455.56,549.03 471.28,539.37 494.00,531.68 C505.07,527.93 515.13,525.53 545.32,519.42 C602.96,507.75 624.89,502.22 649.11,493.26 L 659.23 489.52 L 658.75 481.51 C657.85,466.28 652.40,457.32 641.31,452.85 C635.89,450.66 634.17,450.50 615.50,450.51 C597.66,450.52 594.63,450.77 587.43,452.82 C571.87,457.26 564.19,463.91 557.22,479.00 C555.31,483.12 553.66,486.61 553.55,486.74 C553.44,486.87 545.73,486.12 536.43,485.07 C527.12,484.01 503.08,481.53 483.00,479.54 C462.92,477.56 445.47,475.71 444.22,475.44 C442.89,475.15 441.27,473.54 440.32,471.54 C438.81,468.38 438.82,467.69 440.46,461.82 C450.17,426.96 470.58,404.37 504.44,391.00 C528.72,381.42 573.63,376.09 619.00,377.39 C683.25,379.25 710.27,384.62 734.41,400.35 C756.02,414.44 768.68,435.05 776.28,468.50 C778.24,477.09 778.36,481.70 778.97,569.50 C779.70,674.28 778.98,665.71 788.91,688.79 C792.10,696.19 793.40,700.29 792.65,700.58 C792.02,700.82 766.30,700.90 735.50,700.76 L 679.50 700.50 L 674.80 691.00 C671.60,684.52 669.54,678.64 668.34,672.50 C667.37,667.55 666.47,663.33 666.34,663.13 C666.20,662.93 661.91,666.27 656.80,670.56 C635.45,688.47 616.56,697.66 589.27,703.39 C568.86,707.68 543.03,709.04 522.50,706.90 ZM 607.93 637.96 C625.58,633.73 644.09,620.81 650.96,607.93 C657.25,596.12 658.21,591.48 658.74,570.10 C659.20,551.50 659.14,550.73 657.36,551.43 C652.16,553.46 639.05,557.46 619.36,563.01 C576.35,575.13 566.76,579.11 558.34,588.32 C542.17,606.01 551.53,633.21 575.73,638.91 C582.86,640.59 598.96,640.12 607.93,637.96 ZM 780.00 403.82 C769.79,390.08 746.05,370.51 736.32,367.82 C734.49,367.32 733.00,366.48 733.00,365.95 C733.00,365.43 732.66,365.05 732.25,365.12 C730.09,365.46 727.98,364.83 726.57,363.43 C725.71,362.56 725.00,362.10 725.00,362.40 C725.00,362.70 723.76,362.47 722.25,361.88 C716.66,359.70 708.31,357.80 701.50,357.16 L 694.50 356.50 L 694.24 324.69 C694.02,298.74 694.23,292.63 695.35,291.51 C696.42,290.44 697.02,290.40 698.01,291.31 C699.01,292.23 699.14,292.22 698.59,291.25 C697.41,289.16 705.46,290.21 723.50,294.51 C727.35,295.43 732.30,296.56 734.50,297.03 C742.32,298.69 760.00,305.71 760.00,307.15 C760.00,307.62 761.09,308.00 762.43,308.00 C763.76,308.00 765.56,308.71 766.43,309.57 C767.29,310.44 768.00,310.84 768.00,310.48 C768.00,308.60 791.99,323.94 803.68,333.29 C820.42,346.67 841.00,370.41 841.00,376.34 C841.00,377.80 840.62,379.00 840.16,379.00 C839.69,379.00 836.43,380.88 832.91,383.18 C829.38,385.48 823.70,388.97 820.27,390.93 C816.84,392.89 808.39,397.99 801.49,402.25 C794.59,406.51 787.95,409.97 786.72,409.94 C785.20,409.90 783.08,407.97 780.00,403.82 Z" fill="rgba(252,253,253,1)"/>
</g>
</svg>