<svg xmlns="http://www.w3.org/2000/svg" width="1024" height="1024" viewBox="0 0 1024 1024">
<g>
<path d="M 83.66 1022.41 C43.96,1015.22 13.07,987.12 1.86,948.00 C0.06,941.71 0.00,927.91 0.01,511.00 L 0.01 80.50 L 3.80 69.44 C15.25,36.01 41.86,11.12 75.36,2.53 L 85.22 0.00 L 940.62 0.00 L 949.03 2.13 C983.27,10.78 1010.77,35.87 1022.08,68.74 C1023.96,74.20 1024.00,83.20 1024.00,511.50 C1024.00,939.80 1023.96,948.80 1022.08,954.26 C1010.95,986.62 984.17,1011.49 950.50,1020.75 L 940.50 1023.50 L 516.00 1023.66 C152.93,1023.80 90.36,1023.62 83.66,1022.41 ZM 452.64 857.87 C457.90,859.34 463.05,859.81 474.67,859.89 C491.97,860.02 497.08,859.23 515.50,853.64 C560.31,840.04 621.82,796.26 669.38,744.11 C689.22,722.36 721.59,684.67 735.74,666.84 C738.07,663.90 742.91,657.90 746.49,653.50 C755.44,642.50 792.61,593.07 805.16,575.50 C811.48,566.64 832.47,534.83 839.47,523.50 C856.36,496.18 861.76,486.64 873.40,463.59 C884.74,441.14 887.03,436.13 894.01,418.50 C894.44,417.40 895.34,414.92 896.00,413.00 C896.66,411.08 897.58,408.60 898.05,407.50 C900.00,402.91 902.85,393.67 905.00,385.00 C905.48,383.08 906.39,379.70 907.04,377.50 C907.68,375.30 908.58,370.80 909.03,367.50 C909.48,364.20 910.44,357.23 911.17,352.00 C912.83,339.98 912.84,303.74 911.20,286.50 C909.99,273.83 909.19,268.49 907.05,258.75 C906.47,256.14 905.61,252.09 905.13,249.75 C904.29,245.61 903.68,243.60 902.00,239.50 C901.55,238.40 899.98,234.35 898.50,230.50 C892.69,215.32 880.49,198.86 868.48,189.99 C853.31,178.78 832.25,170.59 809.00,166.86 C796.89,164.92 766.24,165.21 753.50,167.38 C723.09,172.58 695.31,184.87 666.92,205.72 C653.49,215.57 631.99,235.97 622.34,248.00 C608.41,265.37 593.35,290.84 585.98,309.49 C579.11,326.91 571.89,352.22 573.38,353.71 C573.72,354.05 576.14,353.79 578.75,353.12 C584.71,351.59 590.35,350.19 595.50,348.95 C621.94,342.60 646.00,342.76 660.00,349.37 C666.35,352.37 673.48,360.16 677.71,368.72 C682.33,378.07 683.13,382.28 683.67,400.00 C684.10,414.07 683.66,418.36 680.10,435.06 C678.66,441.85 673.45,456.43 669.23,465.50 C660.15,485.01 625.02,540.49 604.65,567.50 C590.37,586.43 577.93,599.86 566.86,608.29 C558.04,615.02 547.16,611.94 537.01,599.84 C531.07,592.76 521.39,574.59 517.91,564.00 C515.52,556.71 513.88,550.16 511.05,536.50 C510.48,533.75 509.54,529.47 508.96,527.00 C508.37,524.53 507.47,520.47 506.96,518.00 C506.44,515.53 505.53,511.48 504.95,509.00 C503.36,502.25 502.20,497.06 501.05,491.50 C500.48,488.75 499.54,484.48 498.96,482.00 C498.37,479.52 497.47,475.48 496.96,473.00 C496.44,470.52 495.53,466.48 494.95,464.00 C493.63,458.39 492.52,453.22 491.00,445.50 C490.35,442.20 489.45,437.70 489.00,435.50 C488.55,433.30 487.65,428.80 487.00,425.50 C486.35,422.20 485.39,417.48 484.86,415.00 C484.34,412.52 483.48,408.36 482.95,405.75 L 481.05 396.25 C480.52,393.64 479.66,389.48 479.14,387.00 C476.78,375.85 475.08,366.86 472.93,354.00 C472.33,350.42 471.43,345.14 470.92,342.25 L 469.08 331.75 C468.57,328.86 467.67,323.58 467.07,320.00 C466.47,316.42 465.54,311.02 465.00,308.00 C464.46,304.98 463.56,299.80 463.00,296.50 C461.46,287.44 460.32,281.08 459.12,275.00 C458.13,269.91 457.54,267.56 455.10,258.75 C451.54,245.94 443.90,229.84 436.24,219.04 C417.89,193.15 389.10,177.73 359.00,177.69 C345.77,177.67 338.15,179.64 321.58,187.39 C297.76,198.52 254.37,229.21 212.00,264.89 C200.37,274.69 158.71,310.78 150.43,318.23 C128.51,337.97 113.04,352.13 112.56,352.91 C112.26,353.39 115.28,357.92 119.26,363.00 C123.24,368.07 127.62,373.70 129.00,375.50 C141.39,391.75 150.67,403.00 151.68,403.00 C152.35,403.00 155.06,401.43 157.70,399.51 C160.34,397.59 165.65,393.72 169.50,390.92 C184.51,380.01 205.84,368.40 214.82,366.27 C230.93,362.44 254.01,384.65 265.05,414.58 C267.22,420.48 272.46,436.80 274.02,442.50 C274.47,444.15 276.26,450.23 278.00,456.00 C279.74,461.77 281.54,467.85 282.00,469.50 C282.45,471.15 284.44,478.12 286.42,485.00 C288.40,491.88 290.51,499.30 291.12,501.50 C291.73,503.70 292.58,506.62 293.00,508.00 C293.42,509.38 294.32,512.53 295.00,515.00 C295.68,517.47 296.58,520.62 297.00,522.00 C297.42,523.38 298.27,526.30 298.87,528.50 C299.48,530.70 301.78,539.03 303.98,547.00 C306.19,554.97 308.38,562.85 308.86,564.50 C309.34,566.15 310.29,569.53 310.98,572.00 C311.67,574.47 312.58,577.62 313.00,579.00 C313.42,580.38 314.26,583.30 314.87,585.50 C315.48,587.70 317.34,594.45 319.00,600.50 C320.66,606.55 322.52,613.30 323.13,615.50 C323.74,617.70 324.58,620.62 325.00,622.00 C325.42,623.38 326.27,626.30 326.87,628.50 C327.48,630.70 329.79,639.03 332.00,647.00 C334.21,654.97 336.52,663.30 337.13,665.50 C337.73,667.70 338.58,670.62 339.01,672.00 C339.44,673.38 341.70,681.47 344.03,690.00 C348.66,706.90 350.00,711.12 358.84,736.50 C366.72,759.16 371.51,770.91 379.22,786.50 C399.13,826.82 422.41,849.44 452.64,857.87 Z" fill="rgba(26,183,234,1)"/>
<path d="M 452.64 857.87 C422.41,849.44 399.13,826.82 379.22,786.50 C371.51,770.91 366.72,759.16 358.84,736.50 C350.00,711.12 348.66,706.90 344.03,690.00 C341.70,681.47 339.44,673.38 339.01,672.00 C338.58,670.62 337.73,667.70 337.13,665.50 C336.52,663.30 334.21,654.97 332.00,647.00 C329.79,639.03 327.48,630.70 326.87,628.50 C326.27,626.30 325.42,623.38 325.00,622.00 C324.58,620.62 323.74,617.70 323.13,615.50 C322.52,613.30 320.66,606.55 319.00,600.50 C317.34,594.45 315.48,587.70 314.87,585.50 C314.26,583.30 313.42,580.38 313.00,579.00 C312.58,577.62 311.67,574.47 310.98,572.00 C310.29,569.53 309.34,566.15 308.86,564.50 C308.38,562.85 306.19,554.97 303.98,547.00 C301.78,539.03 299.48,530.70 298.87,528.50 C298.27,526.30 297.42,523.38 297.00,522.00 C296.58,520.62 295.68,517.47 295.00,515.00 C294.32,512.53 293.42,509.38 293.00,508.00 C292.58,506.62 291.73,503.70 291.12,501.50 C290.51,499.30 288.40,491.88 286.42,485.00 C284.44,478.12 282.45,471.15 282.00,469.50 C281.54,467.85 279.74,461.77 278.00,456.00 C276.26,450.23 274.47,444.15 274.02,442.50 C272.46,436.80 267.22,420.48 265.05,414.58 C254.01,384.65 230.93,362.44 214.82,366.27 C205.84,368.40 184.51,380.01 169.50,390.92 C165.65,393.72 160.34,397.59 157.70,399.51 C155.06,401.43 152.35,403.00 151.68,403.00 C150.67,403.00 141.39,391.75 129.00,375.50 C127.62,373.70 123.24,368.07 119.26,363.00 C115.28,357.92 112.26,353.39 112.56,352.91 C113.04,352.13 128.51,337.97 150.43,318.23 C158.71,310.78 200.37,274.69 212.00,264.89 C254.37,229.21 297.76,198.52 321.58,187.39 C338.15,179.64 345.77,177.67 359.00,177.69 C389.10,177.73 417.89,193.15 436.24,219.04 C443.90,229.84 451.54,245.94 455.10,258.75 C457.54,267.56 458.13,269.91 459.12,275.00 C460.32,281.08 461.46,287.44 463.00,296.50 C463.56,299.80 464.46,304.98 465.00,308.00 C465.54,311.02 466.47,316.42 467.07,320.00 C467.67,323.58 468.57,328.86 469.08,331.75 C469.59,334.64 470.41,339.36 470.92,342.25 C471.43,345.14 472.33,350.42 472.93,354.00 C475.08,366.86 476.78,375.85 479.14,387.00 C479.66,389.48 480.52,393.64 481.05,396.25 C481.57,398.86 482.43,403.14 482.95,405.75 C483.48,408.36 484.34,412.52 484.86,415.00 C485.39,417.48 486.35,422.20 487.00,425.50 C487.65,428.80 488.55,433.30 489.00,435.50 C489.45,437.70 490.35,442.20 491.00,445.50 C492.52,453.22 493.63,458.39 494.95,464.00 C495.53,466.48 496.44,470.52 496.96,473.00 C497.47,475.48 498.37,479.52 498.96,482.00 C499.54,484.48 500.48,488.75 501.05,491.50 C502.20,497.06 503.36,502.25 504.95,509.00 C505.53,511.48 506.44,515.53 506.96,518.00 C507.47,520.47 508.37,524.53 508.96,527.00 C509.54,529.47 510.48,533.75 511.05,536.50 C513.88,550.16 515.52,556.71 517.91,564.00 C521.39,574.59 531.07,592.76 537.01,599.84 C547.16,611.94 558.04,615.02 566.86,608.29 C577.93,599.86 590.37,586.43 604.65,567.50 C625.02,540.49 660.15,485.01 669.23,465.50 C673.45,456.43 678.66,441.85 680.10,435.06 C683.66,418.36 684.10,414.07 683.67,400.00 C683.13,382.28 682.33,378.07 677.71,368.72 C673.48,360.16 666.35,352.37 660.00,349.37 C646.00,342.76 621.94,342.60 595.50,348.95 C590.35,350.19 584.71,351.59 578.75,353.12 C576.14,353.79 573.72,354.05 573.38,353.71 C571.89,352.22 579.11,326.91 585.98,309.49 C593.35,290.84 608.41,265.37 622.34,248.00 C631.99,235.97 653.49,215.57 666.92,205.72 C695.31,184.87 723.09,172.58 753.50,167.38 C766.24,165.21 796.89,164.92 809.00,166.86 C832.25,170.59 853.31,178.78 868.48,189.99 C880.49,198.86 892.69,215.32 898.50,230.50 C899.98,234.35 901.55,238.40 902.00,239.50 C903.68,243.60 904.29,245.61 905.13,249.75 C905.61,252.09 906.47,256.14 907.05,258.75 C909.19,268.49 909.99,273.83 911.20,286.50 C912.84,303.74 912.83,339.98 911.17,352.00 C910.44,357.23 909.48,364.20 909.03,367.50 C908.58,370.80 907.68,375.30 907.04,377.50 C906.39,379.70 905.48,383.08 905.00,385.00 C902.85,393.67 900.00,402.91 898.05,407.50 C897.58,408.60 896.66,411.08 896.00,413.00 C895.34,414.92 894.44,417.40 894.01,418.50 C887.03,436.13 884.74,441.14 873.40,463.59 C861.76,486.64 856.36,496.18 839.47,523.50 C832.47,534.83 811.48,566.64 805.16,575.50 C792.61,593.07 755.44,642.50 746.49,653.50 C742.91,657.90 738.07,663.90 735.74,666.84 C721.59,684.67 689.22,722.36 669.38,744.11 C621.82,796.26 560.31,840.04 515.50,853.64 C497.08,859.23 491.97,860.02 474.67,859.89 C463.05,859.81 457.90,859.34 452.64,857.87 Z" fill="rgba(254,254,254,1)"/>
</g>
</svg>