<svg xmlns="http://www.w3.org/2000/svg" width="1022" height="1026" viewBox="0 0 1022 1026">
<g>
<path d="M 85.31 1024.52 C62.75,1020.41 46.05,1011.46 29.50,994.60 C17.95,982.84 11.52,972.75 6.37,958.36 C5.65,956.33 5.01,954.92 4.44,953.48 C-0.42,941.20 0.00,926.85 0.00,513.00 C0.00,99.15 -0.42,84.80 4.44,72.52 C5.01,71.08 5.65,69.67 6.37,67.64 C11.77,52.54 17.90,43.10 30.50,30.50 C43.10,17.90 52.54,11.77 67.64,6.37 C69.67,5.65 71.09,5.01 72.53,4.43 C84.81,-0.42 99.18,0.00 511.00,0.00 C922.82,0.00 937.19,-0.42 949.47,4.43 C950.91,5.01 952.33,5.65 954.36,6.37 C969.46,11.77 978.90,17.90 991.50,30.50 C1004.10,43.10 1010.23,52.54 1015.63,67.64 C1016.35,69.67 1016.99,71.08 1017.56,72.52 C1022.42,84.80 1022.00,99.15 1022.00,513.00 C1022.00,926.85 1022.42,941.20 1017.56,953.48 C1016.99,954.92 1016.35,956.33 1015.63,958.36 C1010.48,972.75 1004.05,982.84 992.50,994.60 C977.81,1009.56 964.59,1017.34 943.97,1023.12 L 935.50 1025.50 L 514.00 1025.66 C170.43,1025.80 91.17,1025.59 85.31,1024.52 ZM 276.35 928.94 C286.33,930.25 738.86,930.20 749.50,928.89 C792.70,923.60 830.40,892.39 843.40,851.16 C849.53,831.71 849.30,836.62 849.74,716.00 C850.01,641.52 849.78,601.43 849.05,593.00 C846.30,561.33 835.78,538.28 814.60,517.50 C800.40,503.57 784.49,494.46 764.41,488.75 L 756.50 486.50 L 516.23 486.24 C280.13,485.98 275.79,486.01 266.48,487.95 C238.95,493.70 214.21,510.03 197.46,533.50 C187.99,546.78 180.52,565.99 178.03,583.50 C177.42,587.82 177.03,635.37 177.02,707.57 C177.00,816.77 176.91,831.35 180.71,844.83 C181.39,847.24 182.19,849.62 183.14,852.50 C193.29,883.22 218.56,909.81 249.00,921.79 C257.69,925.21 267.61,927.81 276.35,928.94 ZM 501.04 436.47 C523.89,440.60 545.60,434.66 558.66,420.70 C576.86,401.25 582.51,373.71 582.49,304.50 C582.48,266.89 581.87,256.49 578.44,236.00 C571.24,192.93 551.44,173.64 514.50,173.70 C498.26,173.73 486.02,177.62 475.25,186.18 C466.84,192.86 458.46,206.64 454.68,220.00 C444.80,254.89 444.71,355.62 454.52,389.47 C462.26,416.18 478.26,432.35 501.04,436.47 ZM 612.52 844.76 C606.26,847.96 594.92,848.75 587.86,846.49 C582.29,844.71 573.96,837.50 570.35,831.34 C568.93,828.91 567.25,827.08 566.63,827.29 C566.00,827.49 565.28,830.74 565.00,834.58 L 564.50 841.50 L 530.50 841.50 L 529.99 560.95 L 566.50 561.50 L 566.76 601.96 C566.91,624.22 567.42,642.82 567.90,643.30 C568.41,643.81 570.09,642.28 571.86,639.71 C578.73,629.72 586.32,625.83 599.16,625.74 C606.62,625.68 608.58,626.05 613.37,628.39 C625.81,634.48 634.14,650.24 637.99,675.00 C641.31,696.36 641.61,765.89 638.49,792.27 C635.18,820.31 626.65,837.55 612.52,844.76 ZM 359.14 429.66 C360.65,431.49 403.98,431.62 405.80,429.80 C406.71,428.89 407.00,411.76 407.00,358.82 L 407.00 289.05 L 439.54 194.35 C457.44,142.27 471.85,99.06 471.57,98.33 C470.85,96.45 422.75,96.38 421.24,98.25 C420.69,98.94 412.51,124.93 403.07,156.00 C384.97,215.58 383.94,219.18 383.36,219.10 C383.27,219.09 383.19,219.00 383.07,219.00 C382.65,219.00 378.58,206.96 374.04,192.25 C369.50,177.54 365.21,163.70 364.50,161.50 C363.80,159.30 360.88,149.85 358.02,140.50 C355.16,131.15 350.94,117.65 348.66,110.50 L 344.50 97.50 L 319.07 97.23 C304.74,97.08 293.24,97.36 292.73,97.87 C291.95,98.65 300.16,122.97 326.02,196.50 C327.76,201.45 331.36,211.80 334.03,219.50 C336.69,227.20 343.06,245.20 348.19,259.50 L 357.50 285.50 L 357.76 356.91 C357.95,407.38 358.35,428.72 359.14,429.66 ZM 641.27 437.01 C648.33,438.51 659.53,437.32 666.07,434.39 C672.64,431.44 681.89,422.51 686.42,414.75 C687.94,412.14 689.60,410.00 690.10,410.00 C690.59,410.00 691.00,414.18 691.00,419.30 C691.00,425.20 691.44,429.04 692.20,429.80 C693.89,431.49 732.11,431.49 733.80,429.80 C734.72,428.88 735.00,399.75 735.00,304.78 L 735.00 180.96 L 690.50 181.50 L 689.88 272.00 C689.26,363.20 689.10,367.03 685.49,375.68 C681.99,384.06 673.63,389.06 666.40,387.10 C659.51,385.24 656.22,381.52 652.65,371.53 C651.92,369.48 651.39,338.29 651.03,275.00 L 650.50 181.50 L 629.25 181.23 L 608.00 180.96 L 608.00 286.80 C608.00,357.02 608.36,394.63 609.06,398.57 C612.87,419.87 624.19,433.38 641.27,437.01 ZM 741.31 845.57 C734.37,847.76 714.99,848.32 707.26,846.55 C684.22,841.29 672.00,823.28 666.87,787.00 C665.02,773.92 664.96,694.27 666.79,681.50 C669.75,660.88 675.18,647.92 684.64,638.93 C694.49,629.57 705.13,625.80 721.86,625.74 C738.23,625.68 748.01,629.11 757.76,638.34 C763.97,644.21 767.12,649.14 770.04,657.58 C774.53,670.54 778.00,701.45 778.00,728.51 C778.00,738.40 777.69,741.17 776.43,742.43 C775.06,743.80 770.31,744.00 739.54,744.00 C708.25,744.00 704.14,744.18 703.61,745.58 C702.67,748.02 702.90,768.22 704.01,780.72 C705.13,793.35 707.68,801.42 712.15,806.52 C719.47,814.85 730.53,812.71 736.05,801.91 C738.49,797.11 740.97,786.83 740.99,781.38 C740.99,779.11 741.28,775.84 741.62,774.12 L 742.25 771.00 L 775.91 771.00 L 776.62 774.75 C777.51,779.52 775.54,800.50 773.39,809.00 C768.51,828.28 757.93,840.34 741.31,845.57 ZM 439.50 844.75 C435.68,846.72 432.72,847.39 427.00,847.61 C419.00,847.90 417.88,847.74 411.22,845.28 C405.36,843.12 396.79,833.73 394.09,826.51 C390.14,815.96 389.95,810.58 390.23,719.50 L 390.50 631.50 L 407.73 631.23 C424.92,630.95 424.95,630.96 425.48,633.23 C425.77,634.48 426.12,670.83 426.26,714.00 C426.48,786.89 426.23,795.51 430.41,800.10 C431.24,801.02 432.26,801.77 433.49,802.85 C436.47,805.48 437.89,806.00 442.03,806.00 C446.29,806.00 447.54,805.51 450.84,802.53 C453.25,800.35 455.38,797.10 456.57,793.78 C458.35,788.82 458.49,783.73 458.98,710.00 L 459.50 631.50 L 495.50 631.50 L 495.50 841.50 L 460.50 841.50 L 460.00 834.58 C459.72,830.68 459.00,827.49 458.35,827.28 C457.72,827.07 456.19,828.39 454.95,830.20 C450.80,836.25 444.55,842.14 439.50,844.75 ZM 342.75 725.60 L 342.50 841.50 L 323.89 841.77 C309.11,841.99 305.05,841.76 304.14,840.67 C303.31,839.67 302.94,808.13 302.75,723.40 L 302.50 607.50 L 281.08 607.23 C267.14,607.05 259.18,606.57 258.31,605.84 C257.24,604.95 257.02,600.26 257.23,583.11 L 257.50 561.50 L 389.50 561.50 L 389.77 582.28 C389.94,595.47 389.66,603.78 388.99,605.03 C387.99,606.90 386.81,607.00 366.59,607.00 C349.91,607.00 345.00,607.29 344.13,608.35 C343.32,609.32 342.94,641.97 342.75,725.60 ZM 522.47 390.72 C509.03,398.33 497.78,387.37 494.02,363.00 C492.75,354.77 492.72,261.88 493.99,248.89 C496.05,227.71 503.62,217.94 516.99,219.22 C523.14,219.82 527.42,222.93 530.54,229.07 C536.09,240.02 536.22,241.45 536.74,296.50 C537.04,328.45 536.83,351.82 536.17,359.07 C534.59,376.33 530.27,386.30 522.47,390.72 ZM 578.39 806.10 C584.81,810.01 592.28,807.79 596.41,800.74 C602.00,791.20 602.33,788.17 602.77,741.00 C603.19,695.37 602.72,687.69 598.84,677.31 C593.09,661.91 578.05,662.33 571.08,678.09 C566.55,688.33 565.82,698.13 566.23,743.38 C566.58,782.73 566.74,785.91 568.67,791.66 C571.14,799.02 574.17,803.52 578.39,806.10 ZM 703.91 707.83 C705.03,709.92 705.68,710.00 721.34,710.00 C732.65,710.00 737.97,709.63 738.80,708.80 C740.34,707.26 740.41,688.58 738.91,680.47 C736.56,667.76 731.80,663.01 721.40,663.00 C708.60,663.00 704.01,670.46 703.22,692.58 C702.90,701.44 703.13,706.37 703.91,707.83 Z" fill="rgba(230,75,66,1)"/>
<path d="M 276.35 928.94 C267.61,927.81 257.69,925.21 249.00,921.79 C218.56,909.81 193.29,883.22 183.14,852.50 C176.88,833.53 177.00,836.32 177.02,707.57 C177.03,635.37 177.42,587.82 178.03,583.50 C180.52,565.99 187.99,546.78 197.46,533.50 C214.21,510.03 238.95,493.70 266.48,487.95 C275.79,486.01 280.13,485.98 516.23,486.24 L 756.50 486.50 L 764.41 488.75 C784.49,494.46 800.40,503.57 814.60,517.50 C835.78,538.28 846.30,561.33 849.05,593.00 C849.78,601.43 850.01,641.52 849.74,716.00 C849.30,836.62 849.53,831.71 843.40,851.16 C830.40,892.39 792.70,923.60 749.50,928.89 C738.86,930.20 286.33,930.25 276.35,928.94 ZM 439.50 844.75 C444.55,842.14 450.80,836.25 454.95,830.20 C456.19,828.39 457.72,827.07 458.35,827.28 C459.00,827.49 459.72,830.68 460.00,834.58 L 460.50 841.50 L 478.00 841.50 L 495.50 841.50 L 495.50 736.50 L 495.50 631.50 L 477.50 631.50 L 459.50 631.50 L 458.98 710.00 C458.49,783.73 458.35,788.82 456.57,793.78 C455.38,797.10 453.25,800.35 450.84,802.53 C447.54,805.51 446.29,806.00 442.03,806.00 C437.89,806.00 436.47,805.48 433.49,802.85 C426.11,796.38 426.53,801.50 426.26,714.00 C426.12,670.83 425.77,634.48 425.48,633.23 C424.95,630.96 424.92,630.95 407.73,631.23 L 390.50 631.50 L 390.23 719.50 C389.95,810.58 390.14,815.96 394.09,826.51 C396.79,833.73 405.36,843.12 411.22,845.28 C417.88,847.74 419.00,847.90 427.00,847.61 C432.72,847.39 435.68,846.72 439.50,844.75 ZM 612.52 844.76 C626.65,837.55 635.18,820.31 638.49,792.27 C641.61,765.89 641.31,696.36 637.99,675.00 C634.14,650.24 625.81,634.48 613.37,628.39 C608.58,626.05 606.62,625.68 599.16,625.74 C586.32,625.83 578.73,629.72 571.86,639.71 C570.09,642.28 568.41,643.81 567.90,643.30 C567.42,642.82 566.91,624.22 566.76,601.96 L 566.50 561.50 L 548.25 561.23 L 529.99 560.95 L 530.25 701.23 L 530.50 841.50 L 547.50 841.50 L 564.50 841.50 L 565.00 834.58 C565.28,830.74 566.00,827.49 566.63,827.29 C567.25,827.08 568.93,828.91 570.35,831.34 C573.96,837.50 582.29,844.71 587.86,846.49 C594.92,848.75 606.26,847.96 612.52,844.76 ZM 741.31 845.57 C757.93,840.34 768.51,828.28 773.39,809.00 C775.54,800.50 777.51,779.52 776.62,774.75 L 775.91 771.00 L 759.08 771.00 L 742.25 771.00 L 741.62 774.12 C741.28,775.84 740.99,779.11 740.99,781.38 C740.97,786.83 738.49,797.11 736.05,801.91 C730.53,812.71 719.47,814.85 712.15,806.52 C707.68,801.42 705.13,793.35 704.01,780.72 C702.90,768.22 702.67,748.02 703.61,745.58 C704.14,744.18 708.25,744.00 739.54,744.00 C770.31,744.00 775.06,743.80 776.43,742.43 C777.69,741.17 778.00,738.40 778.00,728.51 C778.00,701.45 774.53,670.54 770.04,657.58 C767.12,649.14 763.97,644.21 757.76,638.34 C748.01,629.11 738.23,625.68 721.86,625.74 C705.13,625.80 694.49,629.57 684.64,638.93 C675.18,647.92 669.75,660.88 666.79,681.50 C664.96,694.27 665.02,773.92 666.87,787.00 C672.00,823.28 684.22,841.29 707.26,846.55 C714.99,848.32 734.37,847.76 741.31,845.57 ZM 342.75 725.60 C342.94,641.97 343.32,609.32 344.13,608.35 C345.00,607.29 349.91,607.00 366.59,607.00 C386.81,607.00 387.99,606.90 388.99,605.03 C389.66,603.78 389.94,595.47 389.77,582.28 L 389.50 561.50 L 323.50 561.50 L 257.50 561.50 L 257.23 583.11 C257.02,600.26 257.24,604.95 258.31,605.84 C259.18,606.57 267.14,607.05 281.08,607.23 L 302.50 607.50 L 302.75 723.40 C302.94,808.13 303.31,839.67 304.14,840.67 C305.05,841.76 309.11,841.99 323.89,841.77 L 342.50 841.50 L 342.75 725.60 ZM 501.04 436.47 C478.26,432.35 462.26,416.18 454.52,389.47 C444.71,355.62 444.80,254.89 454.68,220.00 C458.46,206.64 466.84,192.86 475.25,186.18 C486.02,177.62 498.26,173.73 514.50,173.70 C551.44,173.64 571.24,192.93 578.44,236.00 C581.87,256.49 582.48,266.89 582.49,304.50 C582.51,373.71 576.86,401.25 558.66,420.70 C545.60,434.66 523.89,440.60 501.04,436.47 ZM 522.47 390.72 C530.27,386.30 534.59,376.33 536.17,359.07 C536.83,351.82 537.04,328.45 536.74,296.50 C536.22,241.45 536.09,240.02 530.54,229.07 C527.42,222.93 523.14,219.82 516.99,219.22 C503.62,217.94 496.05,227.71 493.99,248.89 C492.72,261.88 492.75,354.77 494.02,363.00 C497.78,387.37 509.03,398.33 522.47,390.72 ZM 641.27 437.01 C624.19,433.38 612.87,419.87 609.06,398.57 C608.36,394.63 608.00,357.02 608.00,286.80 L 608.00 180.96 L 629.25 181.23 L 650.50 181.50 L 651.03 275.00 C651.39,338.29 651.92,369.48 652.65,371.53 C656.22,381.52 659.51,385.24 666.40,387.10 C673.63,389.06 681.99,384.06 685.49,375.68 C689.10,367.03 689.26,363.20 689.88,272.00 L 690.50 181.50 L 712.75 181.23 L 735.00 180.96 L 735.00 304.78 C735.00,399.75 734.72,428.88 733.80,429.80 C732.11,431.49 693.89,431.49 692.20,429.80 C691.44,429.04 691.00,425.20 691.00,419.30 C691.00,414.18 690.59,410.00 690.10,410.00 C689.60,410.00 687.94,412.14 686.42,414.75 C681.89,422.51 672.64,431.44 666.07,434.39 C659.53,437.32 648.33,438.51 641.27,437.01 ZM 359.14 429.66 C358.35,428.72 357.95,407.38 357.76,356.91 L 357.50 285.50 L 348.19 259.50 C343.06,245.20 336.69,227.20 334.03,219.50 C331.36,211.80 327.76,201.45 326.02,196.50 C300.16,122.97 291.95,98.65 292.73,97.87 C293.24,97.36 304.74,97.08 319.07,97.23 L 344.50 97.50 L 348.66 110.50 C350.94,117.65 355.16,131.15 358.02,140.50 C360.88,149.85 363.80,159.30 364.50,161.50 C365.21,163.70 369.50,177.54 374.04,192.25 C378.58,206.96 382.65,219.00 383.07,219.00 C384.01,219.00 382.27,224.48 403.07,156.00 C412.51,124.93 420.69,98.94 421.24,98.25 C422.75,96.38 470.85,96.45 471.57,98.33 C471.85,99.06 457.44,142.27 439.54,194.35 L 407.00 289.05 L 407.00 358.82 C407.00,411.76 406.71,428.89 405.80,429.80 C403.98,431.62 360.65,431.49 359.14,429.66 ZM 578.39 806.10 C574.17,803.52 571.14,799.02 568.67,791.66 C566.74,785.91 566.58,782.73 566.23,743.38 C565.82,698.13 566.55,688.33 571.08,678.09 C578.05,662.33 593.09,661.91 598.84,677.31 C602.72,687.69 603.19,695.37 602.77,741.00 C602.33,788.17 602.00,791.20 596.41,800.74 C592.28,807.79 584.81,810.01 578.39,806.10 ZM 703.91 707.83 C703.13,706.37 702.90,701.44 703.22,692.58 C704.01,670.46 708.60,663.00 721.40,663.00 C731.80,663.01 736.56,667.76 738.91,680.47 C740.41,688.58 740.34,707.26 738.80,708.80 C737.97,709.63 732.65,710.00 721.34,710.00 C705.68,710.00 705.03,709.92 703.91,707.83 Z" fill="rgba(254,254,254,1)"/>
</g>
</svg>